<?xml version="1.0" standalone="no"?>
<!DOCTYPE svg PUBLIC "-//W3C//DTD SVG 20010904//EN"
 "http://www.w3.org/TR/2001/REC-SVG-20010904/DTD/svg10.dtd">
<svg version="1.0" xmlns="http://www.w3.org/2000/svg"
 width="24.000000pt" height="24.000000pt" viewBox="0 0 24.000000 24.000000"
 preserveAspectRatio="xMidYMid meet">

<g transform="translate(0.000000,24.000000) scale(0.100000,-0.100000)"
fill="#000000" stroke="none">
<path d="M12 228 c-16 -16 -16 -200 0 -216 7 -7 36 -12 65 -12 l53 0 0 50 c0
38 -4 50 -15 50 -8 0 -15 5 -15 10 0 6 6 10 14 10 9 0 16 12 18 28 2 19 9 28
26 30 12 2 22 -1 22 -7 0 -6 -7 -11 -15 -11 -8 0 -15 -9 -15 -20 0 -11 7 -20
15 -20 8 0 15 -4 15 -10 0 -5 -7 -10 -15 -10 -11 0 -15 -12 -15 -50 0 -50 0
-50 33 -50 18 0 38 5 45 12 16 16 16 200 0 216 -16 16 -200 16 -216 0z m206
-10 c18 -18 16 -182 -3 -198 -25 -21 -50 -8 -53 28 -3 27 1 35 17 39 28 7 27
39 -1 47 l-23 7 23 9 c30 12 25 44 -6 48 -29 4 -52 -14 -52 -40 0 -11 -9 -22
-20 -25 -26 -7 -26 -39 1 -46 16 -4 20 -12 17 -39 -3 -30 -6 -33 -41 -36 -59
-5 -67 8 -67 107 0 54 5 92 12 99 16 16 180 16 196 0z"/>
</g>
</svg>
