<?xml version="1.0" standalone="no"?>
<!DOCTYPE svg PUBLIC "-//W3C//DTD SVG 20010904//EN"
 "http://www.w3.org/TR/2001/REC-SVG-20010904/DTD/svg10.dtd">
<svg version="1.0" xmlns="http://www.w3.org/2000/svg"
 width="24.000000pt" height="24.000000pt" viewBox="0 0 24.000000 24.000000"
 preserveAspectRatio="xMidYMid meet">

<g transform="translate(0.000000,24.000000) scale(0.100000,-0.100000)"
fill="#000000" stroke="none">
<path d="M22 217 c-19 -20 -22 -35 -22 -98 0 -66 3 -78 23 -97 20 -19 35 -22
98 -22 66 0 78 3 97 23 19 20 22 35 22 98 0 66 -3 78 -23 97 -20 19 -35 22
-98 22 -66 0 -78 -3 -97 -23z m183 -12 c21 -20 25 -34 25 -85 0 -51 -4 -65
-25 -85 -20 -21 -34 -25 -85 -25 -51 0 -65 4 -85 25 -21 20 -25 34 -25 85 0
85 25 110 110 110 51 0 65 -4 85 -25z"/>
<path d="M175 200 c-7 -12 2 -30 16 -30 5 0 9 9 9 20 0 21 -15 27 -25 10z"/>
<path d="M76 164 c-20 -20 -20 -68 0 -88 20 -20 68 -20 88 0 20 20 20 68 0 88
-8 9 -28 16 -44 16 -16 0 -36 -7 -44 -16z m78 -10 c31 -30 9 -84 -34 -84 -10
0 -26 7 -34 16 -31 30 -9 84 34 84 10 0 26 -7 34 -16z"/>
</g>
</svg>
