<?xml version="1.0" encoding="UTF-8"?>
<!DOCTYPE svg PUBLIC "-//W3C//DTD SVG 1.1//EN" "http://www.w3.org/Graphics/SVG/1.1/DTD/svg11.dtd">
<svg xmlns="http://www.w3.org/2000/svg" version="1.1" width="594px" height="420px" style="shape-rendering:geometricPrecision; text-rendering:geometricPrecision; image-rendering:optimizeQuality; fill-rule:evenodd; clip-rule:evenodd" xmlns:xlink="http://www.w3.org/1999/xlink">
<g><path style="opacity:1" fill="#fce3f0" d="M 204.5,36.5 C 215.14,64.8481 209.474,89.3481 187.5,110C 166.734,124.882 144.734,127.048 121.5,116.5C 96.9188,102.336 86.4188,81.0024 90,52.5C 97.7103,21.4005 117.544,5.06717 149.5,3.5C 167.633,3.48477 182.8,10.1514 195,23.5C 198.086,28.0574 201.253,32.3907 204.5,36.5 Z"/></g>
<g><path style="opacity:1" fill="#b580d1" d="M 309.5,15.5 C 317.132,24.4343 319.632,34.7676 317,46.5C 311.912,63.0921 300.745,72.0921 283.5,73.5C 257.627,70.1252 246.127,55.4585 249,29.5C 250.596,26.2136 252.096,22.8803 253.5,19.5C 260.579,8.95704 270.579,3.62371 283.5,3.5C 294.159,3.4841 302.826,7.4841 309.5,15.5 Z"/></g>
<g><path style="opacity:1" fill="#c29bd8" d="M 399.5,1.5 C 404.357,1.54535 406.023,3.87868 404.5,8.5C 397.369,10.2698 395.703,7.93646 399.5,1.5 Z"/></g>
<g><path style="opacity:1" fill="#f89fc9" d="M 309.5,15.5 C 336.556,17.2602 361.89,24.5935 385.5,37.5C 386.412,38.7382 386.579,40.0715 386,41.5C 374.665,58.4269 376.498,73.9269 391.5,88C 409.113,96.829 423.779,93.4956 435.5,78C 436.448,77.5172 437.448,77.3505 438.5,77.5C 469.959,110.773 487.626,150.44 491.5,196.5C 491.43,206.762 490.43,216.929 488.5,227C 490.317,229.606 490.817,232.44 490,235.5C 489.667,233.833 489.333,232.167 489,230.5C 488.111,234.152 487.778,237.818 488,241.5C 488.333,240.167 488.667,238.833 489,237.5C 489.495,239.473 489.662,241.473 489.5,243.5C 486.813,265.227 480.146,285.56 469.5,304.5C 468.883,304.611 468.383,304.944 468,305.5C 448.957,284.523 425.457,277.023 397.5,283C 390.554,285.806 383.888,289.139 377.5,293C 371.694,297.473 366.527,302.64 362,308.5C 360.886,301.217 356.719,297.217 349.5,296.5C 342.687,295.509 335.687,295.175 328.5,295.5C 328.5,297.167 328.5,298.833 328.5,300.5C 329.833,300.5 331.167,300.5 332.5,300.5C 332.5,303.167 332.5,305.833 332.5,308.5C 332.5,309.5 332.5,310.5 332.5,311.5C 331.069,311.881 330.236,312.881 330,314.5C 329.15,320.251 327.983,325.918 326.5,331.5C 325.432,332.434 324.099,332.768 322.5,332.5C 322.5,332.167 322.5,331.833 322.5,331.5C 321.081,330.549 319.415,330.216 317.5,330.5C 319.148,321.901 320.481,313.235 321.5,304.5C 319.208,304.244 317.041,304.577 315,305.5C 313.245,312.301 311.245,318.968 309,325.5C 307.114,328.242 304.614,329.909 301.5,330.5C 302.834,321.828 304.168,313.161 305.5,304.5C 301.818,304.335 298.152,304.501 294.5,305C 293.62,306.356 293.286,307.856 293.5,309.5C 295.346,309.222 296.68,309.889 297.5,311.5C 296.652,313.409 296.318,315.409 296.5,317.5C 294.256,322.171 293.423,327.171 294,332.5C 296.367,336.303 299.534,337.303 303.5,335.5C 305.929,335.415 307.929,334.415 309.5,332.5C 310.518,333.193 311.518,333.859 312.5,334.5C 313.152,335.725 314.319,336.392 316,336.5C 324.746,336.482 333.58,336.315 342.5,336C 345.117,335.178 347.784,334.678 350.5,334.5C 347.82,351.935 350.987,368.269 360,383.5C 362.324,386.823 364.991,389.823 368,392.5C 368.483,393.448 368.649,394.448 368.5,395.5C 365.654,395.552 363.32,396.552 361.5,398.5C 289.194,422.1 223.527,409.933 164.5,362C 154.889,353.229 146.222,343.729 138.5,333.5C 145.62,330.081 152.287,325.747 158.5,320.5C 164.884,314.611 170.384,307.944 175,300.5C 192.252,255.555 179.419,222.721 136.5,202C 123.997,198.627 111.33,197.793 98.5,199.5C 98.5,196.5 98.5,193.5 98.5,190.5C 98.839,185.465 99.5056,180.465 100.5,175.5C 100.377,174.075 100.043,172.742 99.5,171.5C 112.4,182.083 125.4,182.083 138.5,171.5C 151.186,154.203 148.519,139.703 130.5,128C 126.367,126.137 122.033,125.304 117.5,125.5C 118.561,122.378 119.895,119.378 121.5,116.5C 144.734,127.048 166.734,124.882 187.5,110C 209.474,89.3481 215.14,64.8481 204.5,36.5C 219.929,28.2881 236.263,22.6214 253.5,19.5C 252.096,22.8803 250.596,26.2136 249,29.5C 246.127,55.4585 257.627,70.1252 283.5,73.5C 300.745,72.0921 311.912,63.0921 317,46.5C 319.632,34.7676 317.132,24.4343 309.5,15.5 Z"/></g>
<g><path style="opacity:1" fill="#fac9e0" d="M 476.5,28.5 C 482.959,28.4509 486.959,31.6176 488.5,38C 485.643,47.2636 479.977,49.5969 471.5,45C 467.022,37.6018 468.689,32.1018 476.5,28.5 Z"/></g>
<g><path style="opacity:1" fill="#c39fd8" d="M 66.5,30.5 C 71.1585,30.0146 72.4919,31.848 70.5,36C 65.7282,36.8104 64.3948,34.9771 66.5,30.5 Z"/></g>
<g><path style="opacity:1" fill="#d3b3e3" d="M 438.5,77.5 C 437.448,77.3505 436.448,77.5172 435.5,78C 423.779,93.4956 409.113,96.829 391.5,88C 376.498,73.9269 374.665,58.4269 386,41.5C 386.579,40.0715 386.412,38.7382 385.5,37.5C 386.583,37.5394 387.583,37.8728 388.5,38.5C 397.083,31.9292 406.75,29.7626 417.5,32C 428.991,35.4913 436.491,42.9913 440,54.5C 440.804,62.2739 440.304,69.9406 438.5,77.5 Z"/></g>
<g><path style="opacity:1" fill="#49291c" d="M 340.5,73.5 C 327.101,71.9507 313.767,72.2841 300.5,74.5C 302.277,73.3995 304.277,72.5662 306.5,72C 317.167,71.3333 327.833,71.3333 338.5,72C 339.416,72.2784 340.082,72.7784 340.5,73.5 Z"/></g>
<g><path style="opacity:1" fill="#472920" d="M 340.5,73.5 C 344.214,73.5902 347.548,74.5902 350.5,76.5C 346.838,76.2766 343.505,75.2766 340.5,73.5 Z"/></g>
<g><path style="opacity:1" fill="#b5731c" d="M 340.5,73.5 C 343.505,75.2766 346.838,76.2766 350.5,76.5C 356.5,79.1523 362.5,81.9857 368.5,85C 371.363,89.0277 374.696,92.5277 378.5,95.5C 380.766,99.4356 383.766,102.769 387.5,105.5C 387.719,106.675 387.386,107.675 386.5,108.5C 385.06,107.048 383.394,106.048 381.5,105.5C 374.823,99.4981 367.49,94.4981 359.5,90.5C 357.057,87.3693 353.723,86.036 349.5,86.5C 347.562,84.8372 345.228,84.1706 342.5,84.5C 330.905,82.2611 319.238,81.9278 307.5,83.5C 305.073,83.523 302.74,84.023 300.5,85C 296.563,86.5716 292.896,88.4049 289.5,90.5C 288.508,90.3284 287.842,90.6618 287.5,91.5C 285.973,91.427 284.973,92.0937 284.5,93.5C 281.21,95.1236 278.543,97.4569 276.5,100.5C 274.086,101.911 272.419,103.911 271.5,106.5C 268.836,108.484 267.169,111.151 266.5,114.5C 265.603,115.598 264.77,115.598 264,114.5C 263.498,117.513 262.998,120.513 262.5,123.5C 260.896,124.287 260.229,125.62 260.5,127.5C 258.833,127.5 257.167,127.5 255.5,127.5C 247.155,126.244 238.822,126.244 230.5,127.5C 226.005,127.093 222.338,128.426 219.5,131.5C 217.62,131.229 216.287,131.896 215.5,133.5C 210.803,135.178 206.803,137.844 203.5,141.5C 200.573,142.757 198.239,144.757 196.5,147.5C 194.738,148.262 193.738,149.596 193.5,151.5C 191.453,153.55 189.786,155.883 188.5,158.5C 187.33,160.279 185.664,161.279 183.5,161.5C 183.552,163.903 183.219,166.236 182.5,168.5C 182.5,168.833 182.5,169.167 182.5,169.5C 181.109,171.96 179.942,174.626 179,177.5C 178.333,186.167 178.333,194.833 179,203.5C 179.21,205.058 179.71,206.391 180.5,207.5C 180.32,211.286 181.32,214.619 183.5,217.5C 183.182,220.481 184.182,222.815 186.5,224.5C 190.492,230.828 194.492,237.162 198.5,243.5C 199.757,246.427 201.757,248.761 204.5,250.5C 205.5,250.833 206.167,251.5 206.5,252.5C 207.585,254.587 209.251,255.92 211.5,256.5C 212.262,258.262 213.596,259.262 215.5,259.5C 217.389,260.604 219.055,261.937 220.5,263.5C 221.262,265.262 222.596,266.262 224.5,266.5C 224.973,267.906 225.973,268.573 227.5,268.5C 232.5,270.664 237.167,273.331 241.5,276.5C 244.008,278.924 247.008,280.59 250.5,281.5C 255.562,283.192 260.562,285.192 265.5,287.5C 268.084,289.472 271.084,290.472 274.5,290.5C 277.697,290.405 280.697,291.072 283.5,292.5C 285.515,293.924 287.848,294.59 290.5,294.5C 292.277,295.6 294.277,296.434 296.5,297C 291.806,297.564 287.14,297.397 282.5,296.5C 280.059,295.244 277.726,295.244 275.5,296.5C 274.209,296.737 273.209,296.404 272.5,295.5C 270.039,294.469 267.373,293.802 264.5,293.5C 262.562,291.837 260.228,291.171 257.5,291.5C 255.562,289.837 253.228,289.171 250.5,289.5C 248.574,287.707 246.241,286.707 243.5,286.5C 239.418,285.624 235.751,283.957 232.5,281.5C 232.027,280.094 231.027,279.427 229.5,279.5C 228.508,279.672 227.842,279.338 227.5,278.5C 227.027,277.094 226.027,276.427 224.5,276.5C 222.664,274.412 220.331,273.079 217.5,272.5C 217.027,271.094 216.027,270.427 214.5,270.5C 210.466,266.464 206.132,262.798 201.5,259.5C 201.5,257.5 200.5,256.5 198.5,256.5C 195.94,252.43 192.773,248.764 189,245.5C 185.478,239.779 181.978,234.112 178.5,228.5C 178.34,226.847 177.674,225.514 176.5,224.5C 175.737,220.863 174.403,217.53 172.5,214.5C 172.5,214.167 172.5,213.833 172.5,213.5C 169.888,199.494 169.888,185.494 172.5,171.5C 173.738,169.786 174.405,167.786 174.5,165.5C 174.263,164.209 174.596,163.209 175.5,162.5C 177.588,160.664 178.921,158.331 179.5,155.5C 179.845,152.802 181.178,150.802 183.5,149.5C 188.833,143.5 194.5,137.833 200.5,132.5C 202.404,132.262 203.738,131.262 204.5,129.5C 210.826,126.291 217.159,123.291 223.5,120.5C 224.919,119.549 226.585,119.216 228.5,119.5C 237.877,119.32 246.877,118.32 255.5,116.5C 255.733,114.938 256.4,113.605 257.5,112.5C 259.455,111.385 261.288,110.052 263,108.5C 263.787,103.638 265.62,99.3042 268.5,95.5C 268.833,94.5 269.5,93.8333 270.5,93.5C 272.833,91.8333 274.833,89.8333 276.5,87.5C 276.953,86.5416 277.619,85.7083 278.5,85C 281.91,82.6284 285.577,80.7951 289.5,79.5C 291.153,79.3404 292.486,78.6737 293.5,77.5C 295.426,75.7073 297.759,74.7073 300.5,74.5C 313.767,72.2841 327.101,71.9507 340.5,73.5 Z"/></g>
<g><path style="opacity:1" fill="#53301f" d="M 293.5,77.5 C 292.486,78.6737 291.153,79.3404 289.5,79.5C 290.287,77.8958 291.62,77.2291 293.5,77.5 Z"/></g>
<g><path style="opacity:1" fill="#673933" d="M 342.5,84.5 C 345.228,84.1706 347.562,84.8372 349.5,86.5C 346.933,86.2785 344.599,85.6118 342.5,84.5 Z"/></g>
<g><path style="opacity:1" fill="#d4b6e4" d="M 512.5,83.5 C 526.092,82.0248 532.259,88.0248 531,101.5C 528.328,107.513 523.661,110.846 517,111.5C 505.49,108.815 501.49,101.815 505,90.5C 506.742,87.2543 509.242,84.921 512.5,83.5 Z"/></g>
<g><path style="opacity:1" fill="#a76a79" d="M 307.5,83.5 C 302.181,87.2934 296.181,89.6268 289.5,90.5C 292.896,88.4049 296.563,86.5716 300.5,85C 302.74,84.023 305.073,83.523 307.5,83.5 Z"/></g>
<g><path style="opacity:1" fill="#7f4c27" d="M 349.5,86.5 C 353.723,86.036 357.057,87.3693 359.5,90.5C 356.011,89.342 352.678,88.0086 349.5,86.5 Z"/></g>
<g><path style="opacity:1" fill="#63362b" d="M 276.5,87.5 C 274.833,89.8333 272.833,91.8333 270.5,93.5C 271.5,90.5 273.5,88.5 276.5,87.5 Z"/></g>
<g><path style="opacity:1" fill="#57332a" d="M 287.5,91.5 C 287.027,92.9063 286.027,93.573 284.5,93.5C 284.973,92.0937 285.973,91.427 287.5,91.5 Z"/></g>
<g><path style="opacity:1" fill="#0b1734" d="M 313.5,92.5 C 361.852,91.6777 389.019,115.344 395,163.5C 395.667,175.167 395.667,186.833 395,198.5C 392.168,210.496 389.334,222.496 386.5,234.5C 385,232.167 383.5,229.833 382,227.5C 372.946,218.446 363.946,209.446 355,200.5C 348.853,193.223 345.853,184.89 346,175.5C 346.633,168.264 349.633,162.264 355,157.5C 355.239,150.271 353.906,143.271 351,136.5C 345.454,130.287 339.288,124.787 332.5,120C 329.5,119.333 326.5,119.333 323.5,120C 320.134,121.566 316.634,122.733 313,123.5C 308.46,122.148 303.96,120.648 299.5,119C 297.5,118.333 295.5,118.333 293.5,119C 287.262,126.268 285.429,134.434 288,143.5C 289.808,146.486 292.308,148.486 295.5,149.5C 295.561,154.322 296.727,154.655 299,150.5C 303.244,155.393 304.577,161.06 303,167.5C 302.489,169.878 301.822,172.212 301,174.5C 297.333,180.833 293.667,187.167 290,193.5C 288.035,199.691 286.869,206.024 286.5,212.5C 287.982,221.479 289.482,230.479 291,239.5C 293.728,247.951 296.728,256.284 300,264.5C 300.814,272.413 300.647,280.246 299.5,288C 290.81,288.285 282.643,286.451 275,282.5C 274.333,276.5 274.333,270.5 275,264.5C 282.394,248.83 284.394,232.496 281,215.5C 276.064,209.31 273.731,202.31 274,194.5C 276.703,191.462 279.703,188.795 283,186.5C 283.375,182.744 282.875,179.078 281.5,175.5C 280.205,174.902 278.872,174.402 277.5,174C 275.605,171.194 273.272,168.86 270.5,167C 266.558,166.007 262.558,165.34 258.5,165C 257.277,162.948 256.277,160.781 255.5,158.5C 254.194,159.912 253.36,161.579 253,163.5C 251.333,161.5 249.667,159.5 248,157.5C 241.436,171.906 239.603,187.073 242.5,203C 242.477,205.925 241.977,208.759 241,211.5C 236.093,215.371 230.926,218.871 225.5,222C 219.253,227.743 213.586,233.909 208.5,240.5C 206.171,239.002 204.337,237.002 203,234.5C 191.57,215.919 187.903,195.919 192,174.5C 204.421,148.038 225.254,135.538 254.5,137C 258.141,138.269 261.808,139.436 265.5,140.5C 272.595,115.405 288.595,99.405 313.5,92.5 Z"/></g>
<g><path style="opacity:1" fill="#bb8cd4" d="M 468.5,89.5 C 475.167,91.1719 477.334,95.1719 475,101.5C 468.691,106.272 464.191,104.938 461.5,97.5C 461.899,95.8034 462.399,94.1368 463,92.5C 464.876,91.3913 466.709,90.3913 468.5,89.5 Z"/></g>
<g><path style="opacity:1" fill="#5b342a" d="M 378.5,95.5 C 382.234,98.2311 385.234,101.564 387.5,105.5C 383.766,102.769 380.766,99.4356 378.5,95.5 Z"/></g>
<g><path style="opacity:1" fill="#794547" d="M 276.5,100.5 C 275.581,103.089 273.914,105.089 271.5,106.5C 272.419,103.911 274.086,101.911 276.5,100.5 Z"/></g>
<g><path style="opacity:1" fill="#885427" d="M 268.5,95.5 C 265.62,99.3042 263.787,103.638 263,108.5C 261.288,110.052 259.455,111.385 257.5,112.5C 260.422,106.314 264.089,100.648 268.5,95.5 Z"/></g>
<g><path style="opacity:1" fill="#794b27" d="M 381.5,105.5 C 383.394,106.048 385.06,107.048 386.5,108.5C 387.386,107.675 387.719,106.675 387.5,105.5C 391.052,109.6 393.219,114.267 394,119.5C 389.591,114.99 385.425,110.323 381.5,105.5 Z"/></g>
<g><path style="opacity:1" fill="#d5bae4" d="M 73.5,111.5 C 80.4174,111.975 82.9174,115.642 81,122.5C 76.5216,126.731 72.5216,126.398 69,121.5C 67.5582,116.723 69.0582,113.39 73.5,111.5 Z"/></g>
<g><path style="opacity:1" fill="#87542a" d="M 266.5,114.5 C 265.958,117.912 264.625,120.912 262.5,123.5C 262.998,120.513 263.498,117.513 264,114.5C 264.77,115.598 265.603,115.598 266.5,114.5 Z"/></g>
<g><path style="opacity:1" fill="#2a171a" d="M 255.5,116.5 C 246.877,118.32 237.877,119.32 228.5,119.5C 229.609,118.71 230.942,118.21 232.5,118C 240.245,117.801 247.912,117.301 255.5,116.5 Z"/></g>
<g><path style="opacity:1" fill="#b581d1" d="M 117.5,125.5 C 122.033,125.304 126.367,126.137 130.5,128C 148.519,139.703 151.186,154.203 138.5,171.5C 125.4,182.083 112.4,182.083 99.5,171.5C 87.727,155.846 89.3937,141.68 104.5,129C 108.485,126.505 112.818,125.338 117.5,125.5 Z"/></g>
<g><path style="opacity:1" fill="#452820" d="M 223.5,120.5 C 217.159,123.291 210.826,126.291 204.5,129.5C 206.578,126.949 209.244,125.116 212.5,124C 216.009,122.241 219.675,121.074 223.5,120.5 Z"/></g>
<g><path style="opacity:1" fill="#4c2818" d="M 255.5,127.5 C 255.5,127.833 255.5,128.167 255.5,128.5C 247.153,127.37 238.819,127.37 230.5,128.5C 230.5,128.167 230.5,127.833 230.5,127.5C 238.822,126.244 247.155,126.244 255.5,127.5 Z"/></g>
<g><path style="opacity:1" fill="#83552f" d="M 262.5,123.5 C 262.476,128.891 260.143,130.558 255.5,128.5C 255.5,128.167 255.5,127.833 255.5,127.5C 257.167,127.5 258.833,127.5 260.5,127.5C 260.229,125.62 260.896,124.287 262.5,123.5 Z"/></g>
<g><path style="opacity:1" fill="#865323" d="M 230.5,127.5 C 230.5,127.833 230.5,128.167 230.5,128.5C 226.905,129.697 223.239,130.697 219.5,131.5C 222.338,128.426 226.005,127.093 230.5,127.5 Z"/></g>
<g><path style="opacity:1" fill="#331814" d="M 204.5,129.5 C 203.738,131.262 202.404,132.262 200.5,132.5C 201.262,130.738 202.596,129.738 204.5,129.5 Z"/></g>
<g><path style="opacity:1" fill="#5d3432" d="M 219.5,131.5 C 218.486,132.674 217.153,133.34 215.5,133.5C 216.287,131.896 217.62,131.229 219.5,131.5 Z"/></g>
<g><path style="opacity:1" fill="#b683d2" d="M 529.5,136.5 C 546.389,137.622 554.555,146.622 554,163.5C 548.149,179.839 536.982,185.006 520.5,179C 508.738,169.773 506.571,158.606 514,145.5C 518.274,140.785 523.441,137.785 529.5,136.5 Z"/></g>
<g><path style="opacity:1" fill="#4d2d21" d="M 200.5,132.5 C 194.5,137.833 188.833,143.5 183.5,149.5C 187.5,142.167 193.167,136.5 200.5,132.5 Z"/></g>
<g><path style="opacity:1" fill="#774c57" d="M 203.5,141.5 C 201.761,144.243 199.427,146.243 196.5,147.5C 198.239,144.757 200.573,142.757 203.5,141.5 Z"/></g>
<g><path style="opacity:1" fill="#643937" d="M 196.5,147.5 C 196.262,149.404 195.262,150.738 193.5,151.5C 193.738,149.596 194.738,148.262 196.5,147.5 Z"/></g>
<g><path style="opacity:1" fill="#391e1a" d="M 179.5,155.5 C 178.921,158.331 177.588,160.664 175.5,162.5C 175.998,159.674 177.331,157.34 179.5,155.5 Z"/></g>
<g><path style="opacity:1" fill="#804e2a" d="M 188.5,158.5 C 187,162.173 185,165.506 182.5,168.5C 183.219,166.236 183.552,163.903 183.5,161.5C 185.664,161.279 187.33,160.279 188.5,158.5 Z"/></g>
<g><path style="opacity:1" fill="#18182b" d="M 337.5,140.5 C 338.124,140.917 338.457,141.584 338.5,142.5C 337.909,144.266 337.076,145.933 336,147.5C 332.478,150.266 329.145,153.266 326,156.5C 323.05,161.927 324.383,165.593 330,167.5C 334.823,166.005 339.323,163.838 343.5,161C 345.5,160.333 347.5,160.333 349.5,161C 343.5,164.333 337.5,167.667 331.5,171C 322.508,171.672 318.675,167.506 320,158.5C 321.333,156.5 322.667,154.5 324,152.5C 328.694,148.635 333.194,144.635 337.5,140.5 Z"/></g>
<g><path style="opacity:1" fill="#452920" d="M 174.5,165.5 C 174.405,167.786 173.738,169.786 172.5,171.5C 172.259,169.102 172.926,167.102 174.5,165.5 Z"/></g>
<g><path style="opacity:1" fill="#603936" d="M 182.5,169.5 C 182.263,172.647 181.43,175.647 180,178.5C 179.38,188.183 179.546,197.85 180.5,207.5C 179.71,206.391 179.21,205.058 179,203.5C 178.333,194.833 178.333,186.167 179,177.5C 179.942,174.626 181.109,171.96 182.5,169.5 Z"/></g>
<g><path style="opacity:1" fill="#d3b3e3" d="M 98.5,190.5 C 98.5,193.5 98.5,196.5 98.5,199.5C 111.33,197.793 123.997,198.627 136.5,202C 179.419,222.721 192.252,255.555 175,300.5C 170.384,307.944 164.884,314.611 158.5,320.5C 152.287,325.747 145.62,330.081 138.5,333.5C 105.965,343.246 78.7986,335.246 57,309.5C 37.8994,279.108 39.3994,249.775 61.5,221.5C 71.2222,211.299 82.8888,204.132 96.5,200C 97.132,196.73 97.7986,193.563 98.5,190.5 Z"/></g>
<g><path style="opacity:1" fill="#3e221c" d="M 172.5,171.5 C 169.888,185.494 169.888,199.494 172.5,213.5C 170.064,206.506 169.064,199.172 169.5,191.5C 169.667,187.167 169.833,182.833 170,178.5C 170.156,175.809 170.989,173.476 172.5,171.5 Z"/></g>
<g><path style="opacity:1" fill="#6d4128" d="M 180.5,207.5 C 182.101,210.55 183.101,213.884 183.5,217.5C 181.32,214.619 180.32,211.286 180.5,207.5 Z"/></g>
<g><path style="opacity:1" fill="#321d15" d="M 172.5,214.5 C 174.403,217.53 175.737,220.863 176.5,224.5C 174.206,221.63 172.872,218.297 172.5,214.5 Z"/></g>
<g><path style="opacity:1" fill="#f8b5d5" d="M 491.5,196.5 C 492.659,206.658 492.825,216.992 492,227.5C 491.751,233.064 490.918,238.398 489.5,243.5C 489.662,241.473 489.495,239.473 489,237.5C 488.667,238.833 488.333,240.167 488,241.5C 487.778,237.818 488.111,234.152 489,230.5C 489.333,232.167 489.667,233.833 490,235.5C 490.817,232.44 490.317,229.606 488.5,227C 490.43,216.929 491.43,206.762 491.5,196.5 Z"/></g>
<g><path style="opacity:1" fill="#6e4227" d="M 183.5,217.5 C 184.912,219.604 185.912,221.937 186.5,224.5C 184.182,222.815 183.182,220.481 183.5,217.5 Z"/></g>
<g><path style="opacity:1" fill="#fac7e0" d="M 550.5,228.5 C 563.043,229.918 567.21,236.584 563,248.5C 555.667,256.5 548.333,256.5 541,248.5C 536.895,238.377 540.062,231.71 550.5,228.5 Z"/></g>
<g><path style="opacity:1" fill="#573222" d="M 178.5,228.5 C 181.978,234.112 185.478,239.779 189,245.5C 192.773,248.764 195.94,252.43 198.5,256.5C 189.084,249.091 182.418,239.758 178.5,228.5 Z"/></g>
<g><path style="opacity:1" fill="#673a26" d="M 198.5,243.5 C 201.243,245.239 203.243,247.573 204.5,250.5C 201.757,248.761 199.757,246.427 198.5,243.5 Z"/></g>
<g><path style="opacity:1" fill="#5c332c" d="M 206.5,252.5 C 208.749,253.08 210.415,254.413 211.5,256.5C 209.251,255.92 207.585,254.587 206.5,252.5 Z"/></g>
<g><path style="opacity:1" fill="#51331b" d="M 198.5,256.5 C 200.5,256.5 201.5,257.5 201.5,259.5C 200.167,258.833 199.167,257.833 198.5,256.5 Z"/></g>
<g><path style="opacity:1" fill="#5d3735" d="M 211.5,256.5 C 213.404,256.738 214.738,257.738 215.5,259.5C 213.596,259.262 212.262,258.262 211.5,256.5 Z"/></g>
<g><path style="opacity:1" fill="#4d2c23" d="M 201.5,259.5 C 206.132,262.798 210.466,266.464 214.5,270.5C 209.281,267.954 204.948,264.287 201.5,259.5 Z"/></g>
<g><path style="opacity:1" fill="#6e4147" d="M 220.5,263.5 C 222.404,263.738 223.738,264.738 224.5,266.5C 222.596,266.262 221.262,265.262 220.5,263.5 Z"/></g>
<g><path style="opacity:1" fill="#5a302c" d="M 224.5,266.5 C 226.027,266.427 227.027,267.094 227.5,268.5C 225.973,268.573 224.973,267.906 224.5,266.5 Z"/></g>
<g><path style="opacity:1" fill="#16172c" d="M 333.5,246.5 C 334.794,248.048 335.461,250.048 335.5,252.5C 334.054,260.117 332.054,267.617 329.5,275C 331.292,280.786 333.959,286.119 337.5,291C 332.511,291.499 327.511,291.666 322.5,291.5C 323.923,286.284 324.756,280.951 325,275.5C 327.642,269.893 329.975,264.226 332,258.5C 333.015,254.56 333.515,250.56 333.5,246.5 Z"/></g>
<g><path style="opacity:1" fill="#3a1f15" d="M 214.5,270.5 C 216.027,270.427 217.027,271.094 217.5,272.5C 215.973,272.573 214.973,271.906 214.5,270.5 Z"/></g>
<g><path style="opacity:1" fill="#452a22" d="M 217.5,272.5 C 220.331,273.079 222.664,274.412 224.5,276.5C 221.669,275.921 219.336,274.588 217.5,272.5 Z"/></g>
<g><path style="opacity:1" fill="#5b312e" d="M 241.5,276.5 C 244.992,277.41 247.992,279.076 250.5,281.5C 247.008,280.59 244.008,278.924 241.5,276.5 Z"/></g>
<g><path style="opacity:1" fill="#411d1b" d="M 224.5,276.5 C 226.027,276.427 227.027,277.094 227.5,278.5C 225.973,278.573 224.973,277.906 224.5,276.5 Z"/></g>
<g><path style="opacity:1" fill="#48251d" d="M 229.5,279.5 C 231.027,279.427 232.027,280.094 232.5,281.5C 230.973,281.573 229.973,280.906 229.5,279.5 Z"/></g>
<g><path style="opacity:1" fill="#fac5df" d="M 469.5,304.5 C 473.497,311.834 476.997,319.501 480,327.5C 487.24,355.373 480.407,379.207 459.5,399C 434.77,417.239 408.77,419.239 381.5,405C 377.802,402.814 374.468,400.147 371.5,397C 368.032,396.566 364.698,397.066 361.5,398.5C 363.32,396.552 365.654,395.552 368.5,395.5C 368.649,394.448 368.483,393.448 368,392.5C 364.991,389.823 362.324,386.823 360,383.5C 350.987,368.269 347.82,351.935 350.5,334.5C 347.784,334.678 345.117,335.178 342.5,336C 333.58,336.315 324.746,336.482 316,336.5C 314.319,336.392 313.152,335.725 312.5,334.5C 316.242,336.018 319.575,335.352 322.5,332.5C 325.768,333.822 329.435,334.489 333.5,334.5C 352.681,335.149 361.514,325.816 360,306.5C 357.894,301.557 354.394,298.224 349.5,296.5C 356.719,297.217 360.886,301.217 362,308.5C 366.527,302.64 371.694,297.473 377.5,293C 383.888,289.139 390.554,285.806 397.5,283C 425.457,277.023 448.957,284.523 468,305.5C 468.383,304.944 468.883,304.611 469.5,304.5 Z"/></g>
<g><path style="opacity:1" fill="#462628" d="M 243.5,286.5 C 246.241,286.707 248.574,287.707 250.5,289.5C 247.759,289.293 245.426,288.293 243.5,286.5 Z"/></g>
<g><path style="opacity:1" fill="#764747" d="M 265.5,287.5 C 268.916,287.528 271.916,288.528 274.5,290.5C 271.084,290.472 268.084,289.472 265.5,287.5 Z"/></g>
<g><path style="opacity:1" fill="#3a2317" d="M 250.5,289.5 C 253.228,289.171 255.562,289.837 257.5,291.5C 254.848,291.59 252.515,290.924 250.5,289.5 Z"/></g>
<g><path style="opacity:1" fill="#5b3526" d="M 257.5,291.5 C 260.228,291.171 262.562,291.837 264.5,293.5C 261.848,293.59 259.515,292.924 257.5,291.5 Z"/></g>
<g><path style="opacity:1" fill="#4b2d2e" d="M 283.5,292.5 C 286.228,292.171 288.562,292.837 290.5,294.5C 287.848,294.59 285.515,293.924 283.5,292.5 Z"/></g>
<g><path style="opacity:1" fill="#543233" d="M 264.5,293.5 C 267.373,293.802 270.039,294.469 272.5,295.5C 269.447,295.889 266.78,295.223 264.5,293.5 Z"/></g>
<g><path style="opacity:1" fill="#ebd9e6" d="M 247.5,293.5 C 254.158,292.344 256.158,294.844 253.5,301C 246.75,302.469 244.75,299.969 247.5,293.5 Z"/></g>
<g><path style="opacity:1" fill="#0d0e0d" d="M 248.5,294.5 C 253.159,294.015 254.492,295.848 252.5,300C 247.728,300.81 246.395,298.977 248.5,294.5 Z"/></g>
<g><path style="opacity:1" fill="#0f0f0f" d="M 209.5,308.5 C 209.789,314.568 210.622,320.568 212,326.5C 213.372,325.09 214.205,323.423 214.5,321.5C 219.255,314.996 223.255,307.996 226.5,300.5C 227.837,299.685 228.837,298.518 229.5,297C 233.211,296.175 236.878,296.341 240.5,297.5C 238.253,298.245 236.42,299.578 235,301.5C 233.07,311.053 230.903,320.553 228.5,330C 228.645,330.772 228.978,331.439 229.5,332C 230.938,332.219 232.271,332.719 233.5,333.5C 228.833,334.833 224.167,334.833 219.5,333.5C 221.709,332.937 223.209,331.604 224,329.5C 226.216,320.532 227.882,311.532 229,302.5C 226.22,307.062 223.72,311.728 221.5,316.5C 217.663,322.17 214.33,328.17 211.5,334.5C 210.167,334.5 208.833,334.5 207.5,334.5C 206.671,323.361 205.004,312.361 202.5,301.5C 201.526,303.743 201.192,306.076 201.5,308.5C 198.54,315.803 197.04,323.469 197,331.5C 198.205,332.071 199.372,332.738 200.5,333.5C 196.167,334.833 191.833,334.833 187.5,333.5C 189.567,332.866 191.4,331.866 193,330.5C 194.793,320.575 196.959,310.742 199.5,301C 198.387,299.606 197.053,298.439 195.5,297.5C 199.445,296.509 203.445,296.176 207.5,296.5C 207.717,300.705 208.383,304.705 209.5,308.5 Z"/></g>
<g><path style="opacity:1" fill="#0d0d0d" d="M 283.5,310.5 C 284.098,317.188 284.931,323.854 286,330.5C 286.9,331.77 288.066,332.77 289.5,333.5C 284.833,334.833 280.167,334.833 275.5,333.5C 276.991,332.756 278.491,332.09 280,331.5C 280.543,328.132 280.376,324.799 279.5,321.5C 274.821,321.334 270.155,321.501 265.5,322C 262.627,324.913 261.294,328.413 261.5,332.5C 262.675,332.281 263.675,332.614 264.5,333.5C 257.276,334.812 250.109,334.812 243,333.5C 242.394,326.187 243.227,319.021 245.5,312C 245.401,309.452 244.068,307.952 241.5,307.5C 244.784,306.343 248.118,306.176 251.5,307C 249.224,315 247.891,323.167 247.5,331.5C 250.252,331.578 252.918,331.745 255.5,332C 257.903,328.689 259.903,325.189 261.5,321.5C 265.32,316.539 268.653,311.206 271.5,305.5C 271.5,305.167 271.5,304.833 271.5,304.5C 273.39,302.41 275.057,300.077 276.5,297.5C 277.689,296.571 279.022,296.238 280.5,296.5C 281.085,301.375 282.085,306.042 283.5,310.5 Z"/></g>
<g><path style="opacity:1" fill="#714629" d="M 290.5,294.5 C 293.697,294.405 296.697,295.072 299.5,296.5C 299.918,297.222 300.584,297.722 301.5,298C 298.518,298.498 295.518,298.665 292.5,298.5C 289.167,298.5 285.833,298.5 282.5,298.5C 282.5,297.833 282.5,297.167 282.5,296.5C 287.14,297.397 291.806,297.564 296.5,297C 294.277,296.434 292.277,295.6 290.5,294.5 Z"/></g>
<g><path style="opacity:1" fill="#0e0e0e" d="M 349.5,296.5 C 354.394,298.224 357.894,301.557 360,306.5C 361.514,325.816 352.681,335.149 333.5,334.5C 329.435,334.489 325.768,333.822 322.5,332.5C 324.099,332.768 325.432,332.434 326.5,331.5C 327.79,330.942 328.623,329.942 329,328.5C 330.013,322.784 331.18,317.117 332.5,311.5C 332.5,310.5 332.5,309.5 332.5,308.5C 333.317,306.169 333.984,303.669 334.5,301C 333.387,299.606 332.053,298.439 330.5,297.5C 336.798,296.504 343.132,296.17 349.5,296.5 Z"/></g>
<g><path style="opacity:1" fill="#694151" d="M 299.5,296.5 C 301.346,296.222 302.68,296.889 303.5,298.5C 299.685,299.808 296.019,299.808 292.5,298.5C 295.518,298.665 298.518,298.498 301.5,298C 300.584,297.722 299.918,297.222 299.5,296.5 Z"/></g>
<g><path style="opacity:1" fill="#d5cacc" d="M 282.5,296.5 C 282.5,297.167 282.5,297.833 282.5,298.5C 283.162,302.466 283.495,306.466 283.5,310.5C 282.085,306.042 281.085,301.375 280.5,296.5C 279.022,296.238 277.689,296.571 276.5,297.5C 275.057,300.077 273.39,302.41 271.5,304.5C 272.308,301.55 273.642,298.883 275.5,296.5C 277.726,295.244 280.059,295.244 282.5,296.5 Z"/></g>
<g><path style="opacity:1" fill="#161616" d="M 404.5,299.5 C 405.5,299.5 406.5,299.5 407.5,299.5C 407.007,301.806 406.674,304.139 406.5,306.5C 408.5,306.5 410.5,306.5 412.5,306.5C 412.5,307.5 412.5,308.5 412.5,309.5C 410.076,309.192 407.743,309.526 405.5,310.5C 403.369,317.356 402.036,324.356 401.5,331.5C 404.247,331.187 406.914,331.52 409.5,332.5C 407.855,333.696 406.189,334.696 404.5,335.5C 402.064,335.683 399.897,335.016 398,333.5C 397.501,329.179 397.334,324.846 397.5,320.5C 398.74,317.353 399.74,314.02 400.5,310.5C 399.167,309.833 397.833,309.167 396.5,308.5C 399.379,307.119 401.879,305.119 404,302.5C 404.483,301.552 404.649,300.552 404.5,299.5 Z"/></g>
<g><path style="opacity:1" fill="#b785d2" d="M 25.5,300.5 C 37.3098,300.153 42.8098,305.819 42,317.5C 39.0529,325.721 33.2196,328.888 24.5,327C 15.2376,322.078 13.0709,314.911 18,305.5C 20.1699,303.177 22.6699,301.51 25.5,300.5 Z"/></g>
<g><path style="opacity:1" fill="#e6cedc" d="M 349.5,296.5 C 343.132,296.17 336.798,296.504 330.5,297.5C 332.053,298.439 333.387,299.606 334.5,301C 333.984,303.669 333.317,306.169 332.5,308.5C 332.5,305.833 332.5,303.167 332.5,300.5C 331.167,300.5 329.833,300.5 328.5,300.5C 328.5,298.833 328.5,297.167 328.5,295.5C 335.687,295.175 342.687,295.509 349.5,296.5 Z"/></g>
<g><path style="opacity:1" fill="#c0b7bd" d="M 211.5,334.5 C 210.448,336.256 208.781,336.923 206.5,336.5C 205.583,328.164 204.583,319.831 203.5,311.5C 203.36,309.97 202.693,308.97 201.5,308.5C 201.192,306.076 201.526,303.743 202.5,301.5C 205.004,312.361 206.671,323.361 207.5,334.5C 208.833,334.5 210.167,334.5 211.5,334.5 Z"/></g>
<g><path style="opacity:1" fill="#d7c2ce" d="M 261.5,321.5 C 259.903,325.189 257.903,328.689 255.5,332C 252.918,331.745 250.252,331.578 247.5,331.5C 247.891,323.167 249.224,315 251.5,307C 248.118,306.176 244.784,306.343 241.5,307.5C 244.068,307.952 245.401,309.452 245.5,312C 243.227,319.021 242.394,326.187 243,333.5C 250.109,334.812 257.276,334.812 264.5,333.5C 263.675,332.614 262.675,332.281 261.5,332.5C 261.294,328.413 262.627,324.913 265.5,322C 270.155,321.501 274.821,321.334 279.5,321.5C 280.376,324.799 280.543,328.132 280,331.5C 278.491,332.09 276.991,332.756 275.5,333.5C 280.167,334.833 284.833,334.833 289.5,333.5C 288.066,332.77 286.9,331.77 286,330.5C 284.931,323.854 284.098,317.188 283.5,310.5C 285.475,316.553 286.642,322.886 287,329.5C 287.71,330.973 288.876,331.64 290.5,331.5C 290.5,333.167 290.5,334.833 290.5,336.5C 285.156,336.666 279.823,336.499 274.5,336C 273.62,334.644 273.286,333.144 273.5,331.5C 275.167,331.5 276.833,331.5 278.5,331.5C 278.5,328.833 278.5,326.167 278.5,323.5C 274.116,323.174 269.783,323.508 265.5,324.5C 263.673,326.487 262.673,328.821 262.5,331.5C 263.833,331.5 265.167,331.5 266.5,331.5C 266.714,333.144 266.38,334.644 265.5,336C 257.728,336.931 250.061,336.598 242.5,335C 241.861,332.589 241.527,330.089 241.5,327.5C 242.17,321.828 242.836,316.161 243.5,310.5C 242.5,310.5 241.5,310.5 240.5,310.5C 240.261,308.533 240.594,306.699 241.5,305C 245.152,304.501 248.818,304.335 252.5,304.5C 251.486,313.22 250.153,321.887 248.5,330.5C 250.857,330.663 253.19,330.497 255.5,330C 256.975,326.709 258.975,323.875 261.5,321.5 Z"/></g>
<g><path style="opacity:1" fill="#121212" d="M 322.5,331.5 C 322.5,331.833 322.5,332.167 322.5,332.5C 319.575,335.352 316.242,336.018 312.5,334.5C 311.94,332.199 311.44,329.866 311,327.5C 308.972,330.692 306.472,333.359 303.5,335.5C 300.728,335.78 298.228,335.113 296,333.5C 295.471,328.146 295.638,322.813 296.5,317.5C 299.789,313.276 299.122,309.942 294.5,307.5C 297.784,306.343 301.118,306.176 304.5,307C 302.075,314.963 300.742,323.13 300.5,331.5C 307.321,330.518 311.487,326.518 313,319.5C 313.996,315.184 314.83,310.851 315.5,306.5C 317.199,306.34 318.866,306.506 320.5,307C 318.224,315 316.891,323.167 316.5,331.5C 318.5,331.5 320.5,331.5 322.5,331.5 Z"/></g>
<g><path style="opacity:1" fill="#121212" d="M 375.5,305.5 C 384.439,304.112 389.439,307.779 390.5,316.5C 390.167,327.159 384.834,333.492 374.5,335.5C 367.276,334.589 363.943,330.423 364.5,323C 364.565,320.409 365.065,317.909 366,315.5C 368.696,311.639 371.863,308.306 375.5,305.5 Z"/></g>
<g><path style="opacity:1" fill="#151515" d="M 426.5,305.5 C 430.342,305.239 434.009,305.906 437.5,307.5C 438.863,306.121 439.863,306.287 440.5,308C 438.455,315.722 437.122,323.556 436.5,331.5C 438.467,331.739 440.301,331.406 442,330.5C 442.09,332.768 440.923,334.268 438.5,335C 433.288,336.128 430.788,333.961 431,328.5C 429.306,331.358 427.139,333.691 424.5,335.5C 422.097,335.552 419.764,335.219 417.5,334.5C 413.068,325.854 414.068,317.854 420.5,310.5C 422.54,308.823 424.54,307.156 426.5,305.5 Z"/></g>
<g><path style="opacity:1" fill="#e3cbd8" d="M 209.5,308.5 C 208.383,304.705 207.717,300.705 207.5,296.5C 203.445,296.176 199.445,296.509 195.5,297.5C 197.053,298.439 198.387,299.606 199.5,301C 196.959,310.742 194.793,320.575 193,330.5C 191.4,331.866 189.567,332.866 187.5,333.5C 191.833,334.833 196.167,334.833 200.5,333.5C 199.372,332.738 198.205,332.071 197,331.5C 197.04,323.469 198.54,315.803 201.5,308.5C 200.112,316.111 199.112,323.777 198.5,331.5C 199.5,331.5 200.5,331.5 201.5,331.5C 201.5,333.167 201.5,334.833 201.5,336.5C 196.5,336.5 191.5,336.5 186.5,336.5C 186.5,334.833 186.5,333.167 186.5,331.5C 189.238,332.035 191.072,331.035 192,328.5C 194.157,319.222 195.991,309.889 197.5,300.5C 194.09,300.616 192.756,298.95 193.5,295.5C 198.833,295.5 204.167,295.5 209.5,295.5C 209.5,299.833 209.5,304.167 209.5,308.5 Z"/></g>
<g><path style="opacity:1" fill="#dac9d3" d="M 233.5,335.5 C 228.5,335.5 223.5,335.5 218.5,335.5C 218.5,334.167 218.5,332.833 218.5,331.5C 220.911,331.863 222.411,330.863 223,328.5C 224.401,322.504 225.401,316.504 226,310.5C 225.208,313.106 223.708,315.106 221.5,316.5C 223.72,311.728 226.22,307.062 229,302.5C 227.882,311.532 226.216,320.532 224,329.5C 223.209,331.604 221.709,332.937 219.5,333.5C 224.167,334.833 228.833,334.833 233.5,333.5C 232.271,332.719 230.938,332.219 229.5,332C 228.978,331.439 228.645,330.772 228.5,330C 230.903,320.553 233.07,311.053 235,301.5C 236.42,299.578 238.253,298.245 240.5,297.5C 236.878,296.341 233.211,296.175 229.5,297C 228.837,298.518 227.837,299.685 226.5,300.5C 226.751,298.83 227.418,297.33 228.5,296C 233.155,295.501 237.821,295.334 242.5,295.5C 242.657,296.873 242.49,298.207 242,299.5C 239.763,300.056 237.763,301.056 236,302.5C 234.004,312.147 232.171,321.813 230.5,331.5C 231.833,331.5 233.167,331.5 234.5,331.5C 234.768,333.099 234.434,334.432 233.5,335.5 Z"/></g>
<g><path style="opacity:1" fill="#f3e6ee" d="M 404.5,299.5 C 404.649,300.552 404.483,301.552 404,302.5C 401.879,305.119 399.379,307.119 396.5,308.5C 397.833,309.167 399.167,309.833 400.5,310.5C 399.74,314.02 398.74,317.353 397.5,320.5C 397.616,317.14 397.949,313.807 398.5,310.5C 397.5,310.5 396.5,310.5 395.5,310.5C 394.79,307.14 396.124,305.307 399.5,305C 401.402,303.27 403.069,301.437 404.5,299.5 Z"/></g>
<g><path style="opacity:1" fill="#cfc3cb" d="M 275.5,302.5 C 276.748,303.334 277.415,304.667 277.5,306.5C 278.201,310.808 278.534,315.141 278.5,319.5C 274.833,319.5 271.167,319.5 267.5,319.5C 270.167,313.833 272.833,308.167 275.5,302.5 Z"/></g>
<g><path style="opacity:1" fill="#f8a3cb" d="M 275.5,306.5 C 276.617,310.295 277.283,314.295 277.5,318.5C 274.753,318.813 272.086,318.48 269.5,317.5C 271.528,313.816 273.528,310.15 275.5,306.5 Z"/></g>
<g><path style="opacity:1" fill="#e0d4db" d="M 379.5,330.5 C 373.447,334.28 370.114,332.447 369.5,325C 369.713,318.679 372.047,313.346 376.5,309C 383.08,307.58 385.747,310.246 384.5,317C 385.073,322.461 383.406,326.961 379.5,330.5 Z"/></g>
<g><path style="opacity:1" fill="#e5d2dc" d="M 426.5,305.5 C 431.657,304.789 436.99,304.789 442.5,305.5C 441.155,313.518 439.821,321.518 438.5,329.5C 445.828,330.649 446.161,332.816 439.5,336C 435.219,337.458 432.053,336.292 430,332.5C 428.736,334.607 426.903,335.607 424.5,335.5C 427.139,333.691 429.306,331.358 431,328.5C 430.788,333.961 433.288,336.128 438.5,335C 440.923,334.268 442.09,332.768 442,330.5C 440.301,331.406 438.467,331.739 436.5,331.5C 437.122,323.556 438.455,315.722 440.5,308C 439.863,306.287 438.863,306.121 437.5,307.5C 434.009,305.906 430.342,305.239 426.5,305.5 Z"/></g>
<g><path style="opacity:1" fill="#e0cfda" d="M 226.5,300.5 C 223.255,307.996 219.255,314.996 214.5,321.5C 217.664,314.007 221.664,307.007 226.5,300.5 Z"/></g>
<g><path style="opacity:1" fill="#f9c6de" d="M 379.5,330.5 C 373.469,332.643 370.802,330.476 371.5,324C 370.952,317.252 373.619,312.419 379.5,309.5C 382.784,310.128 384.117,312.128 383.5,315.5C 383.331,320.897 381.997,325.897 379.5,330.5 Z"/></g>
<g><path style="opacity:1" fill="#ebdce4" d="M 420.5,310.5 C 414.068,317.854 413.068,325.854 417.5,334.5C 415.665,333.878 414.498,332.544 414,330.5C 412.699,324.042 413.699,318.042 417,312.5C 417.816,311.177 418.983,310.511 420.5,310.5 Z"/></g>
<g><path style="opacity:1" fill="#ddcfd8" d="M 271.5,305.5 C 268.653,311.206 265.32,316.539 261.5,321.5C 263.406,317.078 265.572,312.744 268,308.5C 268.759,306.937 269.926,305.937 271.5,305.5 Z"/></g>
<g><path style="opacity:1" fill="#dbc7d3" d="M 322.5,331.5 C 320.5,331.5 318.5,331.5 316.5,331.5C 316.891,323.167 318.224,315 320.5,307C 318.866,306.506 317.199,306.34 315.5,306.5C 314.83,310.851 313.996,315.184 313,319.5C 311.487,326.518 307.321,330.518 300.5,331.5C 300.742,323.13 302.075,314.963 304.5,307C 301.118,306.176 297.784,306.343 294.5,307.5C 299.122,309.942 299.789,313.276 296.5,317.5C 296.318,315.409 296.652,313.409 297.5,311.5C 296.68,309.889 295.346,309.222 293.5,309.5C 293.286,307.856 293.62,306.356 294.5,305C 298.152,304.501 301.818,304.335 305.5,304.5C 304.168,313.161 302.834,321.828 301.5,330.5C 304.614,329.909 307.114,328.242 309,325.5C 311.245,318.968 313.245,312.301 315,305.5C 317.041,304.577 319.208,304.244 321.5,304.5C 320.481,313.235 319.148,321.901 317.5,330.5C 319.415,330.216 321.081,330.549 322.5,331.5 Z"/></g>
<g><path style="opacity:1" fill="#dac5d1" d="M 352.5,320.5 C 351.586,325.258 348.919,328.758 344.5,331C 340.914,332.108 337.247,332.608 333.5,332.5C 335.34,321.472 337.34,310.472 339.5,299.5C 349.487,297.138 354.487,300.971 354.5,311C 354.579,314.451 353.913,317.618 352.5,320.5 Z"/></g>
<g><path style="opacity:1" fill="#f9a0ca" d="M 352.5,320.5 C 349.113,327.694 343.446,331.027 335.5,330.5C 336.988,320.725 338.988,311.058 341.5,301.5C 349.076,299.629 353.076,302.629 353.5,310.5C 352.947,313.817 352.614,317.15 352.5,320.5 Z"/></g>
<g><path style="opacity:1" fill="#ebdde5" d="M 429.5,326.5 C 431.596,321.022 432.929,315.355 433.5,309.5C 427.017,310.145 423.183,313.811 422,320.5C 421.216,323.76 421.383,326.927 422.5,330C 423.5,330.667 424.5,330.667 425.5,330C 426.471,328.519 427.804,327.685 429.5,327.5C 427.645,331.303 424.812,332.303 421,330.5C 418.8,321.961 420.967,314.795 427.5,309C 429.81,308.503 432.143,308.337 434.5,308.5C 434.469,313.625 433.636,318.625 432,323.5C 431.623,324.942 430.79,325.942 429.5,326.5 Z"/></g>
<g><path style="opacity:1" fill="#f9c6df" d="M 429.5,326.5 C 429.5,326.833 429.5,327.167 429.5,327.5C 427.804,327.685 426.471,328.519 425.5,330C 424.5,330.667 423.5,330.667 422.5,330C 421.383,326.927 421.216,323.76 422,320.5C 423.183,313.811 427.017,310.145 433.5,309.5C 432.929,315.355 431.596,321.022 429.5,326.5 Z"/></g>
<g><path style="opacity:1" fill="#e8d2de" d="M 209.5,308.5 C 210.989,312.957 212.156,317.624 213,322.5C 213.383,321.944 213.883,321.611 214.5,321.5C 214.205,323.423 213.372,325.09 212,326.5C 210.622,320.568 209.789,314.568 209.5,308.5 Z"/></g>
<g><path style="opacity:1" fill="#f3accd" d="M 233.5,335.5 C 228.433,336.188 223.267,336.855 218,337.5C 216.631,334.507 216.297,331.507 217,328.5C 214.932,330.396 213.099,332.396 211.5,334.5C 214.33,328.17 217.663,322.17 221.5,316.5C 223.708,315.106 225.208,313.106 226,310.5C 225.401,316.504 224.401,322.504 223,328.5C 222.411,330.863 220.911,331.863 218.5,331.5C 218.5,332.833 218.5,334.167 218.5,335.5C 223.5,335.5 228.5,335.5 233.5,335.5 Z"/></g>
<g><path style="opacity:1" fill="#d0c2cb" d="M 332.5,311.5 C 331.18,317.117 330.013,322.784 329,328.5C 328.623,329.942 327.79,330.942 326.5,331.5C 327.983,325.918 329.15,320.251 330,314.5C 330.236,312.881 331.069,311.881 332.5,311.5 Z"/></g>
<g><path style="opacity:1" fill="#e4d4dc" d="M 412.5,309.5 C 410.735,310.461 408.735,310.795 406.5,310.5C 404.852,317.056 403.852,323.723 403.5,330.5C 405.833,330.5 408.167,330.5 410.5,330.5C 410.938,334.908 408.938,336.575 404.5,335.5C 406.189,334.696 407.855,333.696 409.5,332.5C 406.914,331.52 404.247,331.187 401.5,331.5C 402.036,324.356 403.369,317.356 405.5,310.5C 407.743,309.526 410.076,309.192 412.5,309.5 Z"/></g>
<g><path style="opacity:1" fill="#e5d4dd" d="M 312.5,334.5 C 311.518,333.859 310.518,333.193 309.5,332.5C 307.929,334.415 305.929,335.415 303.5,335.5C 306.472,333.359 308.972,330.692 311,327.5C 311.44,329.866 311.94,332.199 312.5,334.5 Z"/></g>
<g><path style="opacity:1" fill="#decdd8" d="M 296.5,317.5 C 295.638,322.813 295.471,328.146 296,333.5C 298.228,335.113 300.728,335.78 303.5,335.5C 299.534,337.303 296.367,336.303 294,332.5C 293.423,327.171 294.256,322.171 296.5,317.5 Z"/></g>
<g><path style="opacity:1" fill="#b887d2" d="M 103.5,378.5 C 111.349,379.202 113.849,383.202 111,390.5C 104.373,395.375 99.8727,393.875 97.5,386C 98.2336,382.438 100.234,379.938 103.5,378.5 Z"/></g>
</svg>
