<?xml version="1.0" standalone="no"?>
<!DOCTYPE svg PUBLIC "-//W3C//DTD SVG 20010904//EN"
 "http://www.w3.org/TR/2001/REC-SVG-20010904/DTD/svg10.dtd">
<svg version="1.0" xmlns="http://www.w3.org/2000/svg"
 width="24.000000pt" height="24.000000pt" viewBox="0 0 24.000000 24.000000"
 preserveAspectRatio="xMidYMid meet">

<g transform="translate(0.000000,24.000000) scale(0.100000,-0.100000)"
fill="#000000" stroke="none">
<path d="M88 218 c-8 -14 -23 -23 -38 -23 -21 0 -25 -5 -26 -30 0 -16 -6 -40
-12 -52 -22 -40 -15 -53 26 -51 36 1 36 1 5 5 -18 2 -33 8 -33 13 0 44 57 57
76 17 8 -18 7 -26 -3 -35 -7 -7 -13 -24 -13 -37 0 -23 4 -25 50 -25 46 0 50 2
50 25 0 13 -6 30 -13 37 -10 9 -11 17 -3 35 19 40 76 27 76 -17 0 -5 -15 -11
-32 -13 -32 -4 -32 -4 5 -5 40 -2 47 11 25 51 -6 12 -12 36 -12 52 -1 25 -5
30 -26 30 -15 0 -30 9 -38 23 -16 28 -48 28 -64 0z m56 -4 c8 -21 -1 -34 -24
-34 -10 0 -21 4 -24 9 -10 16 5 41 24 41 10 0 21 -7 24 -16z m-69 -49 c0 -13
-8 -21 -22 -23 -17 -3 -23 2 -23 16 0 10 3 22 7 26 13 13 38 1 38 -19z m133
-2 c3 -18 -2 -23 -18 -23 -12 0 -25 9 -31 23 -8 18 -9 16 -4 -13 4 -27 3 -32
-7 -22 -14 14 -44 16 -52 4 -2 -4 8 -8 22 -7 20 0 27 -5 27 -20 0 -32 -43 -32
-55 0 -15 41 -4 73 25 68 12 -3 25 -1 28 5 4 5 19 9 34 8 21 -1 29 -7 31 -23z
m-60 -105 c7 -7 12 -20 12 -30 0 -14 -8 -18 -40 -18 -32 0 -40 4 -40 18 0 36
43 55 68 30z"/>
</g>
</svg>
